<svg width="320" height="40" viewBox="0 0 320 40" fill="none" xmlns="http://www.w3.org/2000/svg">
<path d="M28.019 14.5647C28.1191 14.7107 28.2647 14.8196 28.4331 14.8743C28.6016 14.9291 28.7834 14.9266 28.9503 14.8673C37.3205 11.8405 45.0738 12.3877 53.7933 12.248C54.0959 12.244 54.4028 12.173 54.6964 12.0392C54.9901 11.9053 55.2647 11.7113 55.5045 11.468L65.2718 1.40974C67.1499 -0.522753 69.0475 -0.468427 70.9645 1.57272C75.5862 6.50871 82.6875 24.7975 82.897 32.6439C82.932 34.134 82.152 36.5671 80.2079 35.0886C79.9246 34.873 79.7321 34.5257 79.6723 34.1224C79.2998 31.6893 79.3813 29.0583 78.6595 26.8115C76.1139 18.8332 73.0211 11.3865 69.3812 4.47146C69.2568 4.23598 69.0796 4.03253 68.8634 3.87709C68.6471 3.72165 68.3979 3.61844 68.1351 3.57557C67.8722 3.53271 67.603 3.55135 67.3486 3.63004C67.0942 3.70872 66.8615 3.84531 66.6688 4.02908C61.8608 8.61583 59.1483 15.8918 51.5115 15.8336C44.2627 15.787 36.8898 15.8297 29.3927 15.9616C27.0488 16.0004 25.0698 15.1739 23.4555 13.482C21.0651 10.9752 18.2634 8.1657 15.0503 5.05353C12.4969 2.58553 10.8827 3.17536 10.2075 6.82303C8.53111 15.9112 6.47056 24.9062 4.02585 33.8081C3.46705 35.857 4.64285 42.3063 0.614893 38.4414C0.34549 38.1873 0.179483 37.8345 0.149205 37.4518C-0.200041 33.2764 0.063825 29.8655 0.940818 27.219C3.23808 20.2806 5.24427 13.2686 6.95946 6.18276C10.4053 -8.00823 24.8059 9.80328 28.019 14.5647Z" fill="black"/>
<path d="M120.709 10.6182C120.336 9.79552 120.018 9.85372 119.754 10.7928C118.031 16.8309 116.696 22.9388 115.749 29.1166C115.689 29.5107 115.522 29.8643 115.272 30.1294C111.966 33.6451 110.15 30.6532 110.778 27.3121C111.186 25.1701 115.167 -7.67062 124.015 8.79046C126.762 13.905 129.269 19.0854 131.535 24.3319C132.001 25.4184 132.397 25.3912 132.723 24.2504L138.148 5.63563C138.202 5.4529 138.293 5.28479 138.413 5.14233C138.534 4.99988 138.681 4.88632 138.846 4.80909C140.996 3.85449 142.397 4.5064 143.049 6.76485C143.147 7.11384 143.131 7.50786 143.002 7.89408C140.616 15.0303 139.254 23.3307 136.04 30.0129C135.867 30.3664 135.586 30.6394 135.249 30.7813C127.752 33.9128 122.781 15.3097 120.709 10.6182Z" fill="black"/>
<path d="M158.206 15.0187C156.227 20.0944 150.162 6.93948 150.104 6.78814C149.39 4.80132 150.034 4.02911 152.036 4.47149C152.227 4.51178 152.407 4.5882 152.565 4.6962C152.723 4.80419 152.856 4.94157 152.956 5.10014L158.078 13.2259C158.237 13.4743 158.331 13.7663 158.354 14.0779C158.376 14.3896 158.325 14.7119 158.206 15.0187Z" fill="black"/>
<path d="M168.776 4.61115C169.956 5.18547 170.697 6.08964 171 7.32364C171.043 7.50432 171.038 7.69195 170.987 7.86771C170.936 8.04346 170.84 8.20111 170.709 8.3248L164.958 13.7148C163.848 14.7626 163.153 15.9888 162.874 17.3935L160.278 30.5135C160.24 30.6916 160.155 30.8554 160.031 30.9869C159.908 31.1184 159.752 31.2124 159.58 31.2586C153.992 32.6905 159.032 17.0559 159.649 15.1351C161.046 10.7579 164.073 8.02212 167.251 4.86727C167.447 4.67057 167.699 4.5401 167.973 4.49416C168.246 4.44823 168.527 4.48912 168.776 4.61115Z" fill="black"/>
<path d="M215.238 11.1653C214.695 9.9158 214.248 9.95072 213.899 11.2701C212.393 16.8968 211.14 22.5701 210.139 28.29C209.836 30.0362 208.777 31.6194 206.937 31.503C205.3 31.3944 204.613 30.529 204.877 28.907C206.002 21.9764 207.516 15.1467 209.417 8.41794C211.256 1.93363 216.053 4.29685 218.253 8.55764C221.016 13.8972 223.581 19.1553 225.948 24.3319C226.383 25.2787 226.744 25.2515 227.031 24.2504L232.386 5.8568C232.498 5.48291 232.736 5.17426 233.049 4.99534C234.935 3.86999 236.356 4.29296 237.31 6.26426C237.467 6.58601 237.488 6.97417 237.368 7.34691C236.437 10.4358 234.442 17.3237 231.385 28.0106C230.694 30.4087 229.371 31.472 227.415 31.2003C221.326 30.3622 217.298 15.9383 215.238 11.1653Z" fill="black"/>
<path d="M272.025 29.8499C264.726 33.7149 256.553 30.304 256.74 21.3167C256.903 13.416 260.31 8.01826 266.961 5.1234C270.849 3.4315 274.439 4.1067 277.729 7.14901C278.626 7.96392 279.161 9.8615 277.077 9.34927C267.985 7.14903 261.35 14.6229 260.768 22.8301C260.279 29.6753 268.02 26.9862 271.559 26.5321C271.748 26.5074 271.936 26.5326 272.103 26.6048C272.27 26.677 272.409 26.7931 272.502 26.9396C272.945 27.6148 273.038 28.3133 272.782 29.0351C272.669 29.3559 272.398 29.6479 272.025 29.8499Z" fill="black"/>
<path d="M287.823 29.3144C281.338 22.5973 285.227 8.93015 293.527 5.03024C296.007 3.86609 300.128 5.75202 296.263 9.03493C291.459 13.0862 289.122 18.158 289.254 24.2503C289.309 26.664 290.686 27.6341 293.387 27.1607C301.148 25.8025 305.137 21.1188 305.355 13.1095C305.386 12.0462 304.641 10.7268 303.119 9.15131C302.91 8.934 302.584 8.7594 302.142 8.62747C301.397 8.41016 301.02 7.95227 301.012 7.25378C301.013 7.08894 301.077 6.92796 301.194 6.79843C301.31 6.66889 301.473 6.57882 301.653 6.54363C315.681 3.91265 311.874 31.8755 292.922 31.5263C290.911 31.4952 289.212 30.758 287.823 29.3144Z" fill="black"/>
<path d="M191.442 9.65192C183.212 12.4459 177.31 30.4436 172.281 30.595C172.211 30.5979 172.142 30.584 172.079 30.5545C172.016 30.525 171.961 30.4807 171.918 30.4252C171.875 30.3697 171.845 30.3045 171.832 30.2349C171.818 30.1653 171.82 30.0933 171.838 30.0246C173.809 22.6904 176.953 16.4777 181.268 11.3865C187.077 4.55293 198.928 1.88701 198.02 15.1234C197.678 20.1293 196.716 25.1196 195.133 30.0944C194.605 31.7553 193.612 32.1122 192.153 31.1654C190.022 29.7801 191 28.3016 191.373 26.3574C192.389 21.1188 192.781 15.8025 192.548 10.4086C192.543 10.2788 192.507 10.152 192.444 10.0385C192.38 9.92487 192.292 9.82752 192.184 9.75413C192.077 9.68073 191.954 9.63328 191.825 9.61554C191.697 9.5978 191.566 9.61027 191.442 9.65192Z" fill="black"/>
<path d="M183.026 21.5961C182.962 21.5533 182.91 21.495 182.875 21.4267C182.84 21.3584 182.823 21.2823 182.825 21.2055C182.827 21.1288 182.849 21.0538 182.888 20.9878C182.927 20.9217 182.983 20.8666 183.049 20.8278C184.469 19.974 186.029 19.4657 187.729 19.3027C187.923 19.2805 188.116 19.295 188.294 19.3451C188.473 19.3952 188.633 19.4799 188.765 19.5938C189.231 19.9973 189.584 20.4785 189.824 21.0373C189.891 21.1947 189.901 21.371 189.855 21.5392C189.809 21.7074 189.708 21.8583 189.568 21.9686C187.69 23.4432 185.509 23.319 183.026 21.5961Z" fill="black"/>
<path d="M314.14 30.4323C315.328 31.645 317.121 31.8149 318.145 30.8118C319.17 29.8086 319.037 28.0123 317.85 26.7996C316.662 25.5869 314.869 25.417 313.845 26.4201C312.82 27.4233 312.952 29.2196 314.14 30.4323Z" fill="black"/>
</svg>
