<svg width="83" height="40" viewBox="0 0 83 40" fill="none" xmlns="http://www.w3.org/2000/svg">
<path d="M28.019 14.5647C28.1191 14.7107 28.2647 14.8196 28.4331 14.8743C28.6016 14.9291 28.7834 14.9266 28.9503 14.8673C37.3205 11.8405 45.0738 12.3877 53.7933 12.248C54.0959 12.244 54.4028 12.173 54.6964 12.0392C54.9901 11.9053 55.2647 11.7113 55.5045 11.468L65.2718 1.40974C67.1499 -0.522753 69.0475 -0.468427 70.9645 1.57272C75.5862 6.50871 82.6875 24.7975 82.897 32.6439C82.932 34.134 82.152 36.5671 80.2079 35.0886C79.9246 34.873 79.7321 34.5257 79.6723 34.1224C79.2998 31.6893 79.3813 29.0583 78.6595 26.8115C76.1139 18.8332 73.0211 11.3865 69.3812 4.47146C69.2568 4.23598 69.0796 4.03253 68.8634 3.87709C68.6471 3.72165 68.3979 3.61844 68.1351 3.57557C67.8722 3.53271 67.603 3.55135 67.3486 3.63004C67.0942 3.70872 66.8615 3.84531 66.6688 4.02908C61.8608 8.61583 59.1483 15.8918 51.5115 15.8336C44.2627 15.787 36.8898 15.8297 29.3927 15.9616C27.0488 16.0004 25.0698 15.1739 23.4555 13.482C21.0651 10.9752 18.2634 8.1657 15.0503 5.05353C12.4969 2.58553 10.8827 3.17536 10.2075 6.82303C8.53111 15.9112 6.47056 24.9062 4.02585 33.8081C3.46705 35.857 4.64285 42.3063 0.614893 38.4414C0.34549 38.1873 0.179483 37.8345 0.149205 37.4518C-0.200041 33.2764 0.063825 29.8655 0.940818 27.219C3.23808 20.2806 5.24427 13.2686 6.95946 6.18276C10.4053 -8.00823 24.8059 9.80328 28.019 14.5647Z" fill="black"/>
</svg>
